# xmcd
#
# Track frame offsets:
#	150
#	970
#	18027
#	33270
#	51930
#	67660
#	85082
#	86105
#	87122
#	87927
#	105290
#	124235
#	146305
#	164972
#	182922
#	199272
#	214612
#	215630
#	216652
#	217465
#	228887
#	243112
#	257792
#	273657
#	289732
#	306662
#
# Disc length: 4288 seconds
#
# Revision: 2
# Processed by: cddbd v1.5.2PL0 Copyright (c) Steve Scherf et al.
# Submitted via: audiograbber 1.83.01
#
DISCID=7e10be1a
DTITLE=Various Artist - T197
DYEAR=1993
DGENRE=pop
TTITLE0=Blank - Empty Track
TTITLE1=Michael McDonald - Hey Girl (Remix Edit)
TTITLE2=Carly Simon - In The Wee Hours Of The Morning
TTITLE3=Earth, Wind and Fire - Spend The Night
TTITLE4=Michael Jackson - Gone To Soon
TTITLE5=Donna Summer - Don't Cry For Me Argentina (Edit)
TTITLE6=Blank - Empty Track
TTITLE7=Blank - Empty Track
TTITLE8=Blank - Empty Track
TTITLE9=KD Lang - Just Keep Me Moving (Remix)
TTITLE10=Snoop Doggy Dogg - What's My Name? (Radio Mix)
TTITLE11=Guns N Roses - Estranged (Edit)
TTITLE12=Ultra Nate - Show Me (Radio Mix)
TTITLE13=Drs - Gangsta Lean (Radio Edit)
TTITLE14=Depeche Mode - One Caress
TTITLE15=Pretenders - Bold As Love
TTITLE16=Blank - Empty Track
TTITLE17=Blank - Empty Track
TTITLE18=Blank - Empty Track
TTITLE19=Dolly Parton, w/ Tammy Wynette and Loretta Lynn - Silver Threads And Gol
TTITLE19=den Needles
TTITLE20=Cleve Francis - I Won't Let You Walk Away
TTITLE21=Lorrie Morgan - Crying Time
TTITLE22=Bo T - The Cutting Edge Of Love
TTITLE23=Diamond Rio - Sawmill Road
TTITLE24=Roger Ballard - You Can't Get There From Here
TTITLE25=Conway Twitty - Don't It Make You Lonely
EXTD=
EXTT0=
EXTT1=
EXTT2=
EXTT3=
EXTT4=
EXTT5=
EXTT6=
EXTT7=
EXTT8=
EXTT9=
EXTT10=
EXTT11=
EXTT12=
EXTT13=
EXTT14=
EXTT15=
EXTT16=
EXTT17=
EXTT18=
EXTT19=
EXTT20=
EXTT21=
EXTT22=
EXTT23=
EXTT24=
EXTT25=
PLAYORDER=
